<?xml version="1.0" encoding="utf-8"?>
<!-- Generator: Adobe Illustrator 23.0.1, SVG Export Plug-In . SVG Version: 6.00 Build 0)  -->
<svg version="1.1" id="Layer_1" xmlns="http://www.w3.org/2000/svg" xmlns:xlink="http://www.w3.org/1999/xlink" x="0px" y="0px"
	 viewBox="0 0 2000 2000" style="enable-background:new 0 0 2000 2000;" xml:space="preserve">
<style type="text/css">
	.st0{fill:none;}
	.st1{fill:#58595B;}
	.st2{fill:#E6393B;}
	.st3{fill:none;stroke:#000000;stroke-width:3.9605;stroke-miterlimit:10;}
</style>
<g>
	<g>
		<g>
			<path class="st0" d="M886.8,845.2c21.5-0.5,70.4,0,70.4-41c0-34.6-38-41.1-70.4-41.1H838v82.1H886.8z"/>
		</g>
		<g>
			<path class="st1" d="M1061.1,1374.1c-20.5,4.7-41.7,7.7-63.7,8.8H748.2v-285.3c49.6,0,89.8,40.2,89.8,89.8v105.7
				c17.5,0,35.1,0.5,52.7,1c13.3,0.5,26.6,0.9,39.9,0.9c24.4,0,48.3-0.9,71.5-3l3.8,9.4C1017.6,1330.1,1036.8,1355.3,1061.1,1374.1z
				"/>
			<path class="st1" d="M1337,1028.1c0,47.5-9.1,92.1-26.6,134.4c-17.5,41.8-41.8,78.9-72.6,111.1c-20,20.9-42.2,39-66.4,54.3
				c-6.6,4.3-13.4,8.2-20.3,12c-6.9,3.7-13.9,7.2-21,10.6c-10.9,5-22.1,9.6-33.4,13.5c-28.7-16-51.8-41.5-64.7-73.2l-1.1-2.8
				c30.7-6.4,59.1-17.3,85-32.7c6.6-3.9,13.1-8.1,19.4-12.6c0.2-0.1,0.4-0.3,0.6-0.4c33.9-24.1,60.8-54.8,81.2-91.7
				c19.9-37,29.9-77.9,29.9-122.5c0-44.2-10-85-29.5-122.5c-19.5-37.1-46-68-79.8-92.2c-18.5-13.2-38.1-23.9-59.2-32
				c-2.2-15.9-7-31-14.1-45.2c-9.8-20.1-23.4-37.7-40.8-52.6c-4.1-3.4-8.2-6.5-12.3-9.5c38.8,3.2,75.3,12.3,109.8,27.3
				c42.3,18.6,79.8,43.7,112.1,76.5c32.3,32.3,57.9,69.7,76.4,113C1327.5,933.6,1337,979.2,1337,1028.1z"/>
		</g>
		<g>
			<path class="st2" d="M1151,1340l-35.2-84.7L975.3,917.7c9.6-5.2,19-11.3,27.2-18.5c13.5-11.5,24.5-25.6,32.5-41.8
				c8.3-16.5,12.4-34.4,12.4-53.3c0-11.7-1.6-23-4.6-33.7c-2-6.8-4.6-13.4-7.8-19.6c-8-16.6-19-30.6-32.5-42.2
				c-28.3-23.7-61.7-35.7-100.1-35.7H748.2v321.5c0,49.6,40.2,89.7,89.8,89.7h0.1V935.1h48.6l144.1,353l1.1,2.8
				c12.9,31.7,36,57.2,64.7,73.2c21.6,12.1,46.4,18.9,72.3,18.9L1151,1340z M886.8,845.2H838v-82.1h48.8c32.4,0,70.4,6.5,70.4,41.1
				C957.2,845.2,908.2,844.7,886.8,845.2z"/>
		</g>
	</g>
	<g>
		<g>
			<g>
				<path class="st1" d="M153.3,1315.6L264,1268l13,30.2c4.7,10.9,7,21,7,30.1s-1.8,17.3-5.3,24.3c-3.5,7.1-8.1,13.1-13.9,18.2
					c-5.7,5.1-11.9,9-18.6,11.9c-8.4,3.6-16.5,5.4-24.4,5.3c-7.9-0.1-15.3-1.6-22.2-4.7c-6.9-3.1-13-7.4-18.3-12.9
					c-5.3-5.5-9.6-11.9-12.7-19.3L153.3,1315.6z M173.9,1324.3l7.6,17.8c2.6,6.1,6,11.4,10,15.7c4.1,4.4,8.6,7.7,13.8,10.1
					c5.1,2.3,10.7,3.5,16.6,3.5c6,0,12.2-1.4,18.6-4.2c6.8-2.9,12.4-6.6,16.5-11.1c4.2-4.5,7.2-9.4,9-14.7
					c1.8-5.4,2.5-10.9,2.2-16.6c-0.3-5.7-1.6-11.2-4-16.6l-8.2-19.1L173.9,1324.3z"/>
			</g>
			<g>
				<path class="st1" d="M326.5,1399.2l43.2,65.3l-12.9,8.5l-34.3-51.9l-30.6,20.2l30.6,46.3l-12.9,8.5l-30.6-46.3l-31.1,20.6
					l35.5,53.8l-12.9,8.5l-44.5-67.3L326.5,1399.2z"/>
			</g>
			<g>
				<path class="st1" d="M428.3,1564.9c-1.2-4.5-2.9-9-5.1-13.7c-2.2-4.7-4.8-8.7-8-12.1c-4.4-4.7-8.9-7.5-13.7-8.3
					c-4.8-0.8-9,0.5-12.7,3.9c-2.8,2.6-4.3,5.6-4.6,9.2c-0.3,3.6,0.3,7.5,1.6,11.7c1.3,4.2,2.8,8.5,4.5,12.8c1.5,3.8,2.8,7.6,4,11.5
					c1.2,3.9,1.8,7.8,1.8,11.8c0,4-0.8,7.9-2.5,11.8c-1.7,3.9-4.7,7.8-8.9,11.7c-4.7,4.3-10,7-16,8.2c-6,1.2-12.1,0.7-18.3-1.7
					c-6.2-2.3-12-6.4-17.5-12.4c-3.6-3.9-6.6-8.1-9-12.5c-2.4-4.4-4.2-8.8-5.6-13.1c-1.4-4.3-2.3-8.4-3-12.2l14.2-3.3
					c0.4,3.2,1.2,6.7,2.2,10.4c1.1,3.7,2.5,7.3,4.3,10.8c1.8,3.5,3.9,6.6,6.3,9.2c2.6,2.8,5.6,5.1,9.1,6.9c3.5,1.8,7.2,2.6,11,2.5
					c3.8-0.2,7.4-1.8,10.9-5.1c3-2.8,4.8-5.9,5.3-9.3c0.5-3.4,0.3-7.1-0.7-11.1c-1-3.9-2.2-7.9-3.8-11.9c-1.5-3.8-2.9-7.7-4.3-11.7
					c-1.4-4-2.3-8.1-2.7-12.3c-0.4-4.1,0-8.2,1.4-12.1c1.3-4,3.9-7.7,7.8-11.2c4.7-4.3,9.8-6.9,15.3-7.9c5.5-0.9,11.1-0.4,16.7,1.7
					c5.6,2.1,10.8,5.6,15.7,10.5c5.3,5.7,9.2,11.4,11.8,17.1c2.6,5.7,4.5,11.1,5.5,16.3L428.3,1564.9z"/>
			</g>
			<g>
				<path class="st1" d="M486.5,1589.1l12.3,10.4l-77.9,91.9l-12.3-10.4L486.5,1589.1z"/>
			</g>
			<g>
				<path class="st1" d="M564.6,1778.7c-2.2,0.3-4.9,0.3-8.2-0.1c-3.3-0.4-6.7-1.1-10.4-2.1c-3.6-1-7.3-2.2-10.9-3.7
					c-3.6-1.5-6.8-3.1-9.6-4.9c-8.2-5.1-14.8-11-19.7-17.7c-4.9-6.6-8.3-13.7-10.2-21.1c-1.8-7.4-2.1-15-0.7-22.7
					c1.3-7.7,4.3-15.1,8.7-22.3c5.3-8.5,11.5-15.2,18.5-20.2c7-5,14.4-8.3,22.2-9.9c7.8-1.6,15.6-1.6,23.4-0.1
					c7.8,1.6,15.2,4.6,22.3,9c5.9,3.7,11,7.9,15.2,12.5c4.2,4.6,7.5,9.2,10,13.8l-12.5,9.6c-1.2-2.3-2.9-4.8-5-7.5
					c-2.2-2.7-4.5-5.2-7.1-7.7c-2.5-2.4-5.1-4.5-7.6-6.1c-6-3.8-12.1-6.3-18.1-7.5c-6-1.2-11.9-1.2-17.5,0
					c-5.6,1.3-10.9,3.7-15.8,7.4c-4.9,3.7-9.3,8.5-13.1,14.5c-3.5,5.6-5.7,11.2-6.7,17c-1,5.8-0.8,11.5,0.6,17
					c1.4,5.5,3.9,10.7,7.6,15.6c3.7,4.9,8.5,9.1,14.3,12.8c3.5,2.2,7.1,4,11,5.4c3.8,1.4,7.4,2.2,10.7,2.5l12.8-20.3l-20.3-12.8
					l8.2-13.1l34,21.4L564.6,1778.7z"/>
			</g>
			<g>
				<path class="st1" d="M720.9,1861.3l-53.4-121.4l3.9,2.7l-31.5,83.7l-15.1-5.8l44.2-116l0.8,0.3l52.4,121.4l-3.3-2.1l31.8-84.5
					l14.9,5.7l-44.2,116.2L720.9,1861.3z"/>
			</g>
			<g>
				<path class="st1" d="M913,1824.4l14.1,1.2l-2,23.6l23.1,1.9l-1.1,13.4l-23.1-1.9l-2,23.6l-14.1-1.2l2-23.6l-23.2-2l1.1-13.4
					l23.2,2L913,1824.4z"/>
			</g>
			<g>
				<path class="st1" d="M1154,1782.3c-4.4-1.4-9.1-2.5-14.2-3.2c-5.1-0.7-9.9-0.7-14.5,0.1c-6.4,1.1-11.2,3.4-14.5,7
					c-3.3,3.6-4.5,7.9-3.7,12.8c0.6,3.7,2.4,6.7,5.2,8.8c2.8,2.2,6.4,3.9,10.6,5.1c4.3,1.2,8.7,2.3,13.2,3.2c4,0.8,7.9,1.8,11.8,2.9
					c3.9,1.1,7.5,2.8,10.9,4.9c3.3,2.1,6.2,5,8.5,8.5c2.3,3.6,4,8.2,4.9,13.9c1,6.2,0.4,12.2-1.8,17.9c-2.3,5.7-6,10.5-11.4,14.4
					c-5.3,3.9-12,6.6-20,7.9c-5.3,0.9-10.4,1.1-15.3,0.7c-5-0.4-9.6-1.2-14-2.5c-4.4-1.2-8.3-2.6-11.9-4.2l5-13.7
					c2.9,1.4,6.3,2.7,9.9,3.8c3.7,1.1,7.5,1.9,11.4,2.3c3.9,0.4,7.6,0.3,11.1-0.3c3.7-0.6,7.3-1.9,10.8-3.9c3.4-2,6.1-4.6,8.1-7.9
					c1.9-3.3,2.5-7.2,1.7-11.9c-0.7-4.1-2.3-7.2-4.9-9.6c-2.6-2.3-5.8-4.2-9.6-5.5c-3.8-1.3-7.8-2.4-12-3.3c-4-0.8-8-1.7-12.1-2.8
					c-4.1-1.1-8-2.5-11.7-4.5c-3.7-1.9-6.8-4.5-9.4-7.8c-2.6-3.3-4.3-7.5-5.2-12.7c-1-6.2-0.5-11.9,1.8-17.1
					c2.2-5.2,5.8-9.5,10.6-13.1c4.8-3.6,10.6-6,17.3-7.4c7.7-1.3,14.6-1.5,20.8-0.6c6.2,0.9,11.7,2.3,16.7,4.3L1154,1782.3z"/>
			</g>
			<g>
				<path class="st1" d="M1196.1,1750.5l75.9-25.2l4.9,14.7l-30.7,10.2l33,99.7l-15.3,5.1l-33-99.7l-29.9,9.9L1196.1,1750.5z"/>
			</g>
			<g>
				<path class="st1" d="M1346.5,1825.5l-9.7-135.7l0.9-0.5l103.5,88.2l-16.5,8.4l-80.3-71.6l6.9-11.9l9.4,115.9L1346.5,1825.5z
					 M1353.3,1770.8l40-20.3l11.1,10.1l-48.9,24.8L1353.3,1770.8z"/>
			</g>
			<g>
				<path class="st1" d="M1558.9,1681.7c-0.5,2.2-1.5,4.7-3,7.6c-1.6,2.9-3.5,5.9-5.7,8.9c-2.2,3.1-4.7,6-7.3,8.8
					c-2.7,2.8-5.3,5.2-8,7.2c-7.7,5.8-15.6,9.8-23.6,12c-8,2.2-15.8,2.9-23.4,1.9c-7.6-1-14.7-3.5-21.4-7.5
					c-6.7-4-12.6-9.4-17.6-16.1c-6-8-10.1-16.2-12.2-24.5c-2.1-8.3-2.6-16.4-1.3-24.2c1.3-7.8,4-15.1,8.3-21.8
					c4.3-6.7,9.7-12.6,16.4-17.6c5.6-4.2,11.3-7.4,17.1-9.7c5.8-2.3,11.3-3.7,16.5-4.4l4.5,15.2c-2.6,0.3-5.5,0.9-8.8,2
					c-3.3,1.1-6.5,2.4-9.7,3.8c-3.2,1.5-6,3.1-8.4,4.9c-5.7,4.3-10.2,9-13.5,14.2c-3.3,5.2-5.4,10.7-6.3,16.4
					c-0.9,5.7-0.5,11.5,1.2,17.4c1.7,5.9,4.6,11.7,8.9,17.4c3.9,5.2,8.4,9.4,13.5,12.4c5,3,10.4,4.9,16,5.6
					c5.7,0.7,11.4,0.2,17.3-1.5c5.9-1.7,11.6-4.6,17.1-8.7c3.3-2.5,6.3-5.2,9-8.3c2.7-3.1,4.7-6.1,6.1-9.1l-14.4-19.2l-19.2,14.4
					l-9.3-12.4l32.1-24.1L1558.9,1681.7z"/>
			</g>
			<g>
				<path class="st1" d="M1531,1556.6l11.4-11.4l85.2,85.2l-11.4,11.4L1531,1556.6z"/>
			</g>
			<g>
				<path class="st1" d="M1743.2,1495l-131.3,18.9l3.7-3.1l72.2,52.9l-9.6,13l-99.9-73.7l0.5-0.7l131-17.8l-2.9,2.6l-72.9-53.4
					l9.5-12.9l100,73.8L1743.2,1495z"/>
			</g>
			<g>
				<path class="st1" d="M1810.2,1336c0.6,2.1,0.9,4.8,0.9,8.1c0,3.3-0.3,6.8-0.8,10.6s-1.3,7.5-2.3,11.2c-1,3.8-2.3,7.1-3.7,10.1
					c-4.1,8.7-9.2,16-15.2,21.7c-6,5.7-12.6,9.9-19.7,12.6c-7.2,2.7-14.6,3.9-22.4,3.4c-7.8-0.4-15.5-2.4-23.1-6
					c-9-4.3-16.5-9.6-22.3-15.9c-5.8-6.3-10-13.3-12.5-20.8c-2.5-7.5-3.5-15.2-2.9-23.2c0.6-7.9,2.7-15.7,6.2-23.2
					c3-6.3,6.5-11.9,10.6-16.6c4.1-4.7,8.2-8.6,12.5-11.6l11.1,11.3c-2.2,1.4-4.4,3.4-6.8,5.9s-4.7,5.1-6.8,7.9
					c-2.1,2.8-3.8,5.6-5.1,8.3c-3,6.4-4.8,12.7-5.3,18.9c-0.5,6.1,0.2,11.9,2.1,17.4c1.9,5.5,5,10.4,9.2,14.8
					c4.2,4.4,9.6,8.2,16,11.2c5.9,2.8,11.8,4.3,17.7,4.6c5.9,0.3,11.5-0.6,16.8-2.6c5.3-2,10.2-5.2,14.6-9.4
					c4.4-4.3,8.1-9.5,11-15.7c1.7-3.7,3.1-7.6,4-11.5c0.9-4,1.3-7.6,1.2-10.9l-21.7-10.2l-10.2,21.7l-14-6.6l17.1-36.3L1810.2,1336z
					"/>
			</g>
		</g>
		<g>
			<g>
				<path class="st1" d="M468,282.7c5-3.6,10-6.2,15.2-7.9c5.1-1.7,10.2-2.4,15.1-2c5,0.3,9.7,1.8,14.1,4.2c4.4,2.5,8.4,6.2,12,11.2
					c2.8,3.9,4.9,8.1,6.5,12.6c1.5,4.5,2.1,9.2,1.6,14.1c-0.5,4.9-2.1,9.8-5,14.6c-2.9,4.9-7.4,9.5-13.5,13.9l-14.5,10.4l25.8,36
					l-13.1,9.4l-70.1-98L468,282.7z M504.6,331.1c3.9-2.8,6.7-5.7,8.4-8.7c1.7-3,2.7-6,2.8-8.9c0.1-2.9-0.3-5.6-1.2-8.3
					c-0.9-2.6-2.1-4.9-3.4-6.8c-1.4-2-3.2-3.8-5.4-5.4c-2.2-1.6-4.7-2.8-7.5-3.6c-2.8-0.7-5.8-0.8-9-0.3c-3.2,0.5-6.6,2-10,4.5
					l-15.2,10.9l26.3,36.7L504.6,331.1z M526.1,327l55.1,22.9L566,360.7l-55.2-22.2L526.1,327z"/>
			</g>
			<g>
				<path class="st1" d="M565.8,220.2l70.3-34.5l6.8,13.9L587.2,227l16.1,32.9l49.8-24.4l6.8,13.9l-49.8,24.4l16.4,33.5l57.9-28.4
					l6.8,13.9l-72.4,35.5L565.8,220.2z"/>
			</g>
			<g>
				<path class="st1" d="M733.8,276.3l-33.3-115.8l31.5-9.1c11.4-3.3,21.7-4.3,30.7-3.1c9.1,1.2,16.9,4,23.5,8.3
					c6.6,4.4,12,9.7,16.3,16c4.3,6.3,7.5,13,9.5,19.9c2.5,8.8,3.3,17,2.2,24.9c-1,7.8-3.5,14.9-7.5,21.4c-3.9,6.4-9,12-15.1,16.6
					c-6.1,4.6-13,8-20.7,10.2L733.8,276.3z M745,256.9l18.6-5.3c6.4-1.8,12-4.5,16.9-8c4.8-3.5,8.7-7.6,11.7-12.4
					c3-4.8,4.8-10.1,5.5-16.1c0.7-5.9,0.1-12.3-1.8-19c-2.1-7.2-5-13.1-8.9-17.8c-3.9-4.7-8.4-8.3-13.5-10.8
					c-5.1-2.5-10.5-3.9-16.1-4.3c-5.7-0.4-11.3,0.2-17,1.8l-20,5.8L745,256.9z"/>
			</g>
			<g>
				<path class="st1" d="M952.8,233.1l2-120.5l32.8,0.5c11.9,0.2,22,2.2,30.3,6s15,8.7,20,14.8c5,6.1,8.7,12.8,10.9,20.1
					c2.3,7.3,3.3,14.6,3.2,21.8c-0.1,9.1-1.9,17.2-5.1,24.4c-3.3,7.2-7.7,13.3-13.4,18.3c-5.6,5-12.1,8.8-19.3,11.4
					c-7.2,2.6-14.8,3.8-22.8,3.7L952.8,233.1z M969.2,217.8l19.3,0.3c6.7,0.1,12.8-0.8,18.5-2.7c5.6-1.9,10.6-4.7,14.8-8.4
					c4.2-3.7,7.6-8.3,10-13.8c2.4-5.5,3.7-11.7,3.8-18.7c0.1-7.4-1-14-3.4-19.6c-2.4-5.6-5.6-10.4-9.8-14.2s-8.9-6.8-14.2-8.8
					c-5.3-2-10.9-3.1-16.8-3.2l-20.8-0.3L969.2,217.8z"/>
			</g>
			<g>
				<path class="st1" d="M1102.4,178.7c1.7-8.2,4.9-15.5,9.5-22.1c4.6-6.6,10.3-12.1,17-16.5c6.7-4.4,14-7.5,21.9-9.2
					c7.9-1.7,16-1.7,24.4,0.1c8.3,1.7,15.7,5,22.2,9.7c6.6,4.7,12,10.5,16.5,17.2c4.4,6.8,7.5,14.1,9.1,22
					c1.6,7.9,1.6,15.9-0.1,24.1c-1.8,8.4-5,15.9-9.7,22.5c-4.7,6.6-10.4,12.1-17.1,16.4c-6.8,4.3-14.1,7.3-21.9,8.8
					c-7.9,1.6-16,1.5-24.2-0.2c-8.4-1.8-15.9-4.9-22.4-9.5c-6.6-4.6-12.1-10.1-16.5-16.7c-4.4-6.6-7.4-13.9-9-21.8
					C1100.5,195.6,1100.6,187.3,1102.4,178.7z M1118.7,182.3c-1.3,6.2-1.4,12.2-0.2,18.1c1.2,5.9,3.3,11.3,6.5,16.3
					c3.2,5,7.1,9.2,12,12.6c4.8,3.5,10.4,5.8,16.6,7.1c6.1,1.3,12,1.3,17.9,0.1c5.8-1.2,11.1-3.5,15.9-6.8
					c4.8-3.3,8.9-7.4,12.3-12.3c3.4-4.9,5.8-10.5,7.1-16.8c1.3-6.2,1.4-12.3,0.3-18.2c-1.1-6-3.3-11.4-6.4-16.4
					c-3.2-5-7.2-9.2-12-12.6c-4.8-3.5-10.3-5.8-16.4-7.1c-6.2-1.3-12.2-1.3-18,0c-5.8,1.3-11.2,3.6-16.1,6.8
					c-4.9,3.3-9,7.5-12.3,12.5C1122.3,170.5,1120,176.1,1118.7,182.3z"/>
			</g>
			<g>
				<path class="st1" d="M1270.7,219.4c3.4-7.6,8-14.2,13.9-19.6c5.9-5.5,12.6-9.7,20.1-12.6c7.5-2.9,15.3-4.4,23.4-4.4
					c8.1,0,16,1.7,23.9,5.2c7.7,3.4,14.3,8.1,19.7,14.1c5.4,6,9.6,12.8,12.5,20.3c2.9,7.5,4.4,15.3,4.3,23.4
					c0,8.1-1.7,15.9-5.1,23.5c-3.5,7.8-8.2,14.5-14.1,20s-12.7,9.7-20.2,12.5c-7.5,2.8-15.3,4.2-23.3,4.1c-8-0.1-15.9-1.8-23.6-5.3
					c-7.8-3.5-14.5-8.1-20-13.9c-5.5-5.8-9.7-12.4-12.7-19.8c-2.9-7.4-4.3-15.1-4.2-23.2C1265.4,235.4,1267.2,227.4,1270.7,219.4z
					 M1285.9,226.3c-2.6,5.8-3.9,11.7-4,17.6c-0.1,6,0.9,11.7,2.9,17.2c2,5.5,5.1,10.5,9.1,14.9c4,4.4,8.9,7.9,14.7,10.4
					c5.7,2.5,11.5,3.8,17.5,3.8c5.9,0,11.6-1.1,17-3.3c5.4-2.2,10.2-5.4,14.6-9.5c4.4-4.1,7.8-9.1,10.4-15c2.6-5.8,3.9-11.7,4-17.8
					c0.1-6.1-0.8-11.9-2.9-17.4c-2.1-5.5-5.1-10.5-9.1-14.9s-8.9-7.8-14.6-10.4c-5.8-2.6-11.7-3.8-17.6-3.8c-6,0-11.7,1.2-17.2,3.4
					c-5.5,2.2-10.3,5.4-14.6,9.6C1291.9,215.5,1288.5,220.5,1285.9,226.3z"/>
			</g>
			<g>
				<path class="st1" d="M1493.1,267.8c5,3.5,9.2,7.3,12.5,11.6s5.7,8.8,7,13.6c1.4,4.8,1.6,9.7,0.8,14.7c-0.8,5-3,10.1-6.5,15.1
					c-2.7,3.9-5.9,7.4-9.7,10.3c-3.7,3-8,5.1-12.7,6.3c-4.8,1.2-9.9,1.3-15.5,0.3c-5.5-1.1-11.4-3.7-17.6-8l-14.7-10.1l-25.2,36.5
					l-13.3-9.2l68.5-99.1L1493.1,267.8z M1460,318.7c3.9,2.7,7.6,4.4,11,5c3.4,0.6,6.5,0.5,9.3-0.4c2.8-0.9,5.2-2.2,7.4-3.9
					c2.2-1.8,3.9-3.6,5.2-5.5c1.4-2,2.5-4.3,3.3-6.9c0.8-2.6,1.1-5.4,0.8-8.2c-0.2-2.9-1.2-5.7-2.8-8.6c-1.6-2.9-4.1-5.5-7.6-7.9
					l-15.4-10.6l-25.7,37.2L1460,318.7z M1471.1,337.5l-2.9,59.6l-15.4-10.6l2.2-59.5L1471.1,337.5z"/>
			</g>
		</g>
		<g>
			<path class="st1" d="M173.7,1204c-15.7-64.7-23.6-131.5-23.6-198.7c0-148.4,39-368,224.6-571.8l13.7,12.5
				c-181.7,199.4-219.8,414.2-219.8,559.4c0,65.7,7.8,131.1,23.1,194.3L173.7,1204z"/>
		</g>
		<g>
			<path class="st1" d="M1826.3,1204l-18-4.4c15.3-63.3,23.1-128.6,23.1-194.3c0-150.3-40.7-372.1-234.6-575.2l13.4-12.8
				c198.1,207.5,239.7,434.3,239.7,588C1849.9,1072.5,1842,1139.4,1826.3,1204z"/>
		</g>
	</g>
</g>
<path class="st3" d="M48.3-32.2"/>
</svg>
